<svg xmlns="http://www.w3.org/2000/svg" width="23.001" height="21.159" viewBox="0 0 23.001 21.159">
    <defs>
        <style>
            .cls-1{fill:none}
        </style>
    </defs>
    <g id="Icon_view_pw" transform="translate(-748 -358)">
        <g id="그룹_233" data-name="그룹 233" transform="translate(32)">
            <path id="빼기_1" d="M3097-12127a11.228 11.228 0 0 1-6.727-2.243A12.53 12.53 0 0 1 3086-12135a12.774 12.774 0 0 1 3.19-4.851l3.036 3.256a5.645 5.645 0 0 0-.226 1.595 5.18 5.18 0 0 0 5 5.331 4.716 4.716 0 0 0 1.468-.234l2.145 2.3a11.114 11.114 0 0 1-3.613.603zm7.2-2.616l-2.752-2.951a5.551 5.551 0 0 0 .552-2.433 5.18 5.18 0 0 0-5-5.334 4.691 4.691 0 0 0-2.257.573l-2.168-2.325a11.088 11.088 0 0 1 4.425-.914 11.229 11.229 0 0 1 6.726 2.243A12.538 12.538 0 0 1 3108-12135a12.627 12.627 0 0 1-3.8 5.382zm-7.52-2.2a3.112 3.112 0 0 1-2.664-2.858l2.665 2.856zm3.228-2.4l-3.625-3.888a2.86 2.86 0 0 1 .717-.091 3.108 3.108 0 0 1 3 3.2 3.423 3.423 0 0 1-.089.777z" class="cls-1" data-name="빼기 1" transform="translate(-2369 12503)"/>
            <rect id="사각형_1527" width="2.5" height="27" class="cls-1" data-name="사각형 1527" rx="1.25" transform="rotate(135.97 291.981 337.609)"/>
        </g>
        <path id="패스_54710" fill="#dcdddf" d="M24-39a11.869 11.869 0 0 0-11 8 11.869 11.869 0 0 0 11 8 11.869 11.869 0 0 0 11-8 11.869 11.869 0 0 0-11-8zm0 13.333A5.177 5.177 0 0 1 19-31a5.177 5.177 0 0 1 5-5.333A5.177 5.177 0 0 1 29-31a5.177 5.177 0 0 1-5 5.333zm0-8.533a3.1 3.1 0 0 0-3 3.2 3.1 3.1 0 0 0 3 3.2 3.1 3.1 0 0 0 3-3.2 3.1 3.1 0 0 0-3-3.2z" data-name="패스 54710" transform="translate(736 399)"/>
    </g>
</svg>
