<svg xmlns="http://www.w3.org/2000/svg" width="24.755" height="22" viewBox="0 0 24.755 22">
    <path fill="#7e8da0" d="M17.3 3.578l3.877 3.877a.42.42 0 0 1 0 .593l-9.386 9.386-3.991.443a.836.836 0 0 1-.924-.924l.443-3.988 9.391-9.387a.42.42 0 0 1 .59 0zm6.962-.984L22.168.5A1.681 1.681 0 0 0 19.8.5l-1.526 1.518a.42.42 0 0 0 0 .593l3.876 3.877a.42.42 0 0 0 .593 0l1.521-1.521a1.681 1.681 0 0 0 0-2.372zM16.5 14.881v4.375H2.751V5.5h9.876a.528.528 0 0 0 .365-.15l1.719-1.719a.516.516 0 0 0-.365-.881H2.063A2.063 2.063 0 0 0 0 4.816v15.128a2.063 2.063 0 0 0 2.063 2.063h15.128a2.063 2.063 0 0 0 2.063-2.063v-6.782a.517.517 0 0 0-.881-.365l-1.719 1.719a.528.528 0 0 0-.154.365z" transform="translate(0 -.007)"/>
</svg>
