<svg xmlns="http://www.w3.org/2000/svg" width="19.25" height="22" viewBox="0 0 19.25 22">
    <path fill="#44bbc8" d="M12.375 5.844V0H3.781A1.029 1.029 0 0 0 2.75 1.031V11H.344a.345.345 0 0 0-.344.344v.688a.345.345 0 0 0 .344.344H6.4a.35.35 0 0 1 .309.189l.855 1.71L10 9.389a.343.343 0 0 1 .614 0l1.491 2.986h3.016a.688.688 0 0 1 0 1.375h-3.859l-.95-1.9-2.44 4.886a.343.343 0 0 1-.614 0l-1.5-2.986H2.75v7.219A1.029 1.029 0 0 0 3.781 22h14.438a1.029 1.029 0 0 0 1.031-1.031V6.875h-5.844a1.034 1.034 0 0 1-1.031-1.031zm6.574-1.332L14.743.3a1.03 1.03 0 0 0-.73-.3h-.263v5.5h5.5v-.262a1.028 1.028 0 0 0-.301-.726z"/>
</svg>
