<svg xmlns="http://www.w3.org/2000/svg" id="intensity_1" width="41" height="42" viewBox="0 0 41 42">
    <defs>
        <style>
            .cls-2{fill:#c3c5d4}
        </style>
    </defs>
    <path id="사각형_1771" fill="#44bbc8" d="M2.5 0A2.5 2.5 0 0 1 5 2.5V19H0V2.5A2.5 2.5 0 0 1 2.5 0z" transform="translate(0 23)"/>
    <path id="사각형_1772" d="M2.5 0A2.5 2.5 0 0 1 5 2.5V25H0V2.5A2.5 2.5 0 0 1 2.5 0z" class="cls-2" transform="translate(9 17)"/>
    <path id="사각형_1773" d="M2.5 0A2.5 2.5 0 0 1 5 2.5V31H0V2.5A2.5 2.5 0 0 1 2.5 0z" class="cls-2" transform="translate(18 11)"/>
    <path id="사각형_1774" d="M2.5 0A2.5 2.5 0 0 1 5 2.5V37H0V2.5A2.5 2.5 0 0 1 2.5 0z" class="cls-2" transform="translate(27 5)"/>
    <path id="사각형_1775" d="M2.5 0A2.5 2.5 0 0 1 5 2.5V42H0V2.5A2.5 2.5 0 0 1 2.5 0z" class="cls-2" transform="translate(36)"/>
</svg>
