<svg xmlns="http://www.w3.org/2000/svg" id="checkbox_click" width="18" height="18" viewBox="0 0 18 18">
    <defs>
        <clipPath id="clip-path">
            <path id="Mask" fill="#fff" d="M10.817 1.046L4.094 7.815a.588.588 0 0 1-.856 0L.183 4.738a.6.6 0 0 1 0-.862.588.588 0 0 1 .856 0l2.628 2.647L9.961.185a.588.588 0 0 1 .856 0 .6.6 0 0 1 0 .861z"/>
        </clipPath>
        <style>
        </style>
    </defs>
    <path id="Rectangle" fill="#44bbc8" d="M2 0h14a2 2 0 0 1 2 2v14a2 2 0 0 1-2 2H2a2 2 0 0 1-2-2V2a2 2 0 0 1 2-2z"/>
    <path id="Mask-2" fill="#fff" stroke="#fff" d="M10.817 1.046L4.094 7.815a.588.588 0 0 1-.856 0L.183 4.738a.6.6 0 0 1 0-.862.588.588 0 0 1 .856 0l2.628 2.647L9.961.185a.588.588 0 0 1 .856 0 .6.6 0 0 1 0 .861z" transform="translate(4 5)"/>
</svg>
