<svg xmlns="http://www.w3.org/2000/svg" width="46.802" height="46.802" viewBox="0 0 46.802 46.802">
    <defs>
        <style>
            .cls-2{fill:#bbbec2}
        </style>
    </defs>
    <g id="em_joy_n" transform="translate(1 1)">
        <path id="패스_55946" fill="#eeeff1" stroke="#bbbec2" stroke-width="2px" d="M22.4 0A22.4 22.4 0 1 1 0 22.4 22.4 22.4 0 0 1 22.4 0z"/>
        <circle id="타원_302" cx="2.797" cy="2.797" r="2.797" class="cls-2" transform="translate(11.178 15.054)"/>
        <circle id="타원_303" cx="2.797" cy="2.797" r="2.797" class="cls-2" transform="translate(27.999 15.054)"/>
        <path id="패스_53561" d="M242.57 110.714a17.047 17.047 0 0 1-7.57-2.062 2.472 2.472 0 1 1 2.175-4.435c4.237 2.09 6.553 2.09 10.776 0a2.473 2.473 0 0 1 2.189 4.435 17.047 17.047 0 0 1-7.57 2.062z" class="cls-2" transform="translate(-220.177 -75.548)"/>
    </g>
</svg>
