<svg xmlns="http://www.w3.org/2000/svg" width="39.533" height="39.529" viewBox="0 0 39.533 39.529">
    <defs>
        <style>
            .cls-2{fill:#007e10}
        </style>
    </defs>
    <g id="em_joy" transform="translate(1 1)">
        <ellipse id="타원_300" cx="18.767" cy="18.765" fill="#99eba0" stroke="#67d871" stroke-width="2px" rx="18.767" ry="18.765"/>
        <path id="패스_53552" d="M301.852 98.167a1.029 1.029 0 0 1-1.029-1.041 1.846 1.846 0 1 0-3.691 0 1.041 1.041 0 1 1-2.07 0 3.916 3.916 0 1 1 7.832 0 1.041 1.041 0 0 1-1.042 1.041z" class="cls-2" transform="translate(-287.878 -82.114)"/>
        <path id="패스_53553" d="M314.812 98.134a1.041 1.041 0 0 1-1.041-1.041 1.846 1.846 0 1 0-3.68 0 1.041 1.041 0 1 1-2.07 0 3.916 3.916 0 0 1 7.82 0 1.029 1.029 0 0 1-1.029 1.041z" class="cls-2" transform="translate(-285.503 -82.079)"/>
        <path id="패스_53554" fill="#006310" d="M314.045 102.66a.532.532 0 0 1 .532.556 7.383 7.383 0 0 1-2.946 5.277 9.027 9.027 0 0 1-10.968 0 7.442 7.442 0 0 1-2.934-5.277.532.532 0 0 1 .532-.556z" transform="translate(-287.387 -80.383)"/>
        <path id="패스_53555" d="M311.178 108.108a9.027 9.027 0 0 1-10.968 0 6.164 6.164 0 0 1 10.968 0z" class="cls-2" transform="translate(-286.933 -79.998)"/>
    </g>
</svg>
