<svg xmlns="http://www.w3.org/2000/svg" width="20.824" height="19.239" viewBox="0 0 20.824 19.239">
    <defs>
        <style>
            .cls-2{fill:#ffe600}
        </style>
    </defs>
    <g id="kakao" transform="translate(-58.146 -514.225)">
        <g id="그룹_196" transform="translate(58.146 514.225)">
            <path id="패스_1025" fill="#381e1e" d="M610.132 1324.27c-5.751 0-10.412 3.68-10.412 8.222 0 2.923 1.933 5.48 4.832 6.946l-.981 3.661a.3.3 0 0 0 .071.309.305.305 0 0 0 .214.09.31.31 0 0 0 .181-.072l4.218-2.856a13.565 13.565 0 0 0 1.876.138c5.746 0 10.412-3.685 10.412-8.227s-4.666-8.222-10.412-8.222" transform="translate(-599.72 -1324.26)"/>
            <path id="패스_1026" d="M605.482 1337.661h-1.148a.733.733 0 0 1-.4-.106.48.48 0 0 1-.211-.307v-.115a.48.48 0 0 1 .178-.389.725.725 0 0 1 .452-.144h3.492a.748.748 0 0 1 .408.11.48.48 0 0 1 .211.307.439.439 0 0 1 0 .115.48.48 0 0 1-.173.394.7.7 0 0 1-.447.135H606.7v3.939a.619.619 0 0 1-.168.48.572.572 0 0 1-.442.173.605.605 0 0 1-.384-.125.538.538 0 0 1-.207-.341.606.606 0 0 1 0-.163z" class="cls-2" transform="translate(-601.798 -1330.746)"/>
            <path id="패스_1027" d="M612.332 1336.784a.553.553 0 0 1 .216-.3.715.715 0 0 1 .37-.087h.279a.758.758 0 0 1 .394.1.619.619 0 0 1 .25.365l1.441 4.232a2.468 2.468 0 0 1 .1.336 1.222 1.222 0 0 1 0 .144.529.529 0 0 1-.168.394.544.544 0 0 1-.4.158.514.514 0 0 1-.543-.346l-.312-.917h-1.949l-.317.917a.5.5 0 0 1-.543.346.553.553 0 0 1-.355-.11.509.509 0 0 1-.187-.312 1.032 1.032 0 0 1 0-.13.851.851 0 0 1 .034-.221c.024-.086.053-.173.082-.259zm.73.961l-.716 2.224h1.417z" class="cls-2" transform="translate(-605.437 -1330.641)"/>
        </g>
        <path id="패스_1028" d="M621.029 1337a.634.634 0 0 1 .168-.48.571.571 0 0 1 .442-.173.569.569 0 0 1 .6.605v3.939h2.017a.745.745 0 0 1 .413.106.481.481 0 0 1 .2.307.957.957 0 0 1 0 .115.481.481 0 0 1-.178.394.721.721 0 0 1-.452.139h-2.522a.779.779 0 0 1-.456-.12.552.552 0 0 1-.231-.37.95.95 0 0 0-.024-.25z" class="cls-2" transform="translate(-552.638 -816.317)"/>
        <path id="패스_1029" d="M629.334 1337a.658.658 0 0 1 .168-.48.572.572 0 0 1 .442-.173.585.585 0 0 1 .384.125.563.563 0 0 1 .207.341.6.6 0 0 1 0 .163v1.83l1.921-2.185a1.64 1.64 0 0 1 .231-.207.438.438 0 0 1 .255-.067.647.647 0 0 1 .36.11.48.48 0 0 1 .2.3v.043a.192.192 0 0 0 0 .053.508.508 0 0 1-.053.23 1.308 1.308 0 0 1-.144.2l-1.244 1.359 1.47 2.325.043.072a1.376 1.376 0 0 1 .178.351.153.153 0 0 0 0 .038v.038a.557.557 0 0 1-.178.48.724.724 0 0 1-.442.139.628.628 0 0 1-.3-.062.812.812 0 0 1-.235-.264l-1.393-2.243-.668.692v1.249a.639.639 0 0 1-.168.48.587.587 0 0 1-.442.173.621.621 0 0 1-.389-.125.553.553 0 0 1-.2-.341.6.6 0 0 1 0-.163z" class="cls-2" transform="translate(-556.961 -816.317)"/>
    </g>
</svg>
