<svg xmlns="http://www.w3.org/2000/svg" width="180" height="31.06" viewBox="0 0 180 31.06">
    <defs>
        <style>
            .cls-1{fill:#44bbc8}.cls-2{fill:#3a4b5f}
        </style>
    </defs>
    <g id="symlogo" transform="translate(-730.809 -421.128)">
        <path id="패스_56549" d="M357.8 380.118l.124.295a3.929 3.929 0 0 0 2.434 1.6c2.186.705 4.5 1.2 6.65 2.108a14.924 14.924 0 0 1 2.519 1.364 8.208 8.208 0 0 1 2.72 3.015 8.037 8.037 0 0 1-.078 7.27 10.928 10.928 0 0 1-5.495 4.953 16.161 16.161 0 0 1-7.394 1.077 18.7 18.7 0 0 1-9.556-3.309 1.643 1.643 0 0 1-.171-2.55l3.193-2.968a1.666 1.666 0 0 1 2.155-.07 11.355 11.355 0 0 0 7.146 2.372c1.659-.047 3.635-.775 3.348-2.728a2.052 2.052 0 0 0-.124-.372 4.308 4.308 0 0 0-2.93-2.147c-1.821-.62-3.72-.992-5.534-1.612a11.076 11.076 0 0 1-4.875-2.93 7.89 7.89 0 0 1-2.062-5.425 8.207 8.207 0 0 1 2.186-5.425 11.261 11.261 0 0 1 5.658-3.216 17.407 17.407 0 0 1 8.138-.248 17.828 17.828 0 0 1 5.906 2.325 1.651 1.651 0 0 1 .294 2.6l-.915.884c-.682.682-1.4 1.356-2.108 2.038a1.628 1.628 0 0 1-2.116.116 8.254 8.254 0 0 0-6.975-1.55c-1.189.262-2.553 1.122-2.138 2.533z" class="cls-1" transform="translate(381.779 50.321)"/>
        <path id="패스_56550" d="M400.439 392.681v6.814a1.647 1.647 0 0 1-1.647 1.647h-3.745a1.647 1.647 0 0 1-1.647-1.647v-6.814a1.553 1.553 0 0 0-.218-.816l-9.8-17.232a1.647 1.647 0 0 1 1.43-2.463h4.328a1.655 1.655 0 0 1 1.43.831l6.355 11.172 6.35-11.173a1.655 1.655 0 0 1 1.43-.831h4.258a1.647 1.647 0 0 1 1.43 2.455l-9.743 17.24a1.655 1.655 0 0 0-.21.816z" class="cls-1" transform="translate(373.514 50.659)"/>
        <path id="패스_56551" d="M434.391 397.677l-2.711-6.884v8.663a1.647 1.647 0 0 1-1.647 1.647h-3.745a1.647 1.647 0 0 1-1.647-1.647v-25.639a1.647 1.647 0 0 1 1.647-1.647h4.561a1.647 1.647 0 0 1 1.554 1.041l7.14 18.25 7.2-18.25a1.647 1.647 0 0 1 1.554-1.041h4.522a1.647 1.647 0 0 1 1.647 1.647v25.6a1.647 1.647 0 0 1-1.647 1.647h-3.745a1.647 1.647 0 0 1-1.647-1.647v-8.663l-2.735 6.922a5.532 5.532 0 0 1-5.151 3.5 5.54 5.54 0 0 1-5.15-3.499z" class="cls-1" transform="translate(361.893 50.659)"/>
        <g id="그룹_3721" transform="translate(823.233 422.829)">
            <path id="패스_56552" d="M473.023 377.473l.047.1a1.4 1.4 0 0 0 .87.575 21.21 21.21 0 0 1 2.377.777 5.058 5.058 0 0 1 .9.49 2.929 2.929 0 0 1 .971 1.072 2.9 2.9 0 0 1 0 2.6 3.931 3.931 0 0 1-1.958 1.771 5.8 5.8 0 0 1-2.642.381 6.394 6.394 0 0 1-3.97-1.639l2.02-1.872a4.048 4.048 0 0 0 2.937 1.158c.591 0 1.3-.28 1.2-.979a.833.833 0 0 0-.047-.132 1.554 1.554 0 0 0-1.049-.777c-.645-.225-1.329-.357-1.973-.583a3.978 3.978 0 0 1-1.748-1.041 2.867 2.867 0 0 1-.738-1.935 2.929 2.929 0 0 1 .777-1.935 4.024 4.024 0 0 1 2.02-1.15 6.433 6.433 0 0 1 5.641 1.165l-.839.777c-.373.373-.777.738-1.15 1.111a2.96 2.96 0 0 0-2.851-.9c-.445.15-.935.446-.795.966z" class="cls-2" transform="translate(-469.597 -374.141)"/>
            <path id="패스_56553" d="M483.4 374.65h8.072v2.517h-5.562v1.375h4.351v2.51h-4.351v1.375h5.563v2.51H483.4z" class="cls-2" transform="translate(-472.671 -374.254)"/>
            <path id="패스_56554" d="M503.373 383.694h-4.2l-.489 1.266H496l3.97-10.31h2.657l3.986 10.31h-2.719zm-.956-2.51l-1.15-2.983-1.142 2.983z" class="cls-2" transform="translate(-475.481 -374.254)"/>
            <path id="패스_56555" d="M518.9 380.563l1.771 4.4h-2.758l-1.554-3.923h-2.529v3.923h-2.51V374.65h5.889a3.185 3.185 0 0 1 1.663 5.912zm-.987-2.727a.684.684 0 0 0-.676-.676h-3.38v1.367h3.38a.692.692 0 0 0 .671-.692z" class="cls-2" transform="translate(-478.899 -374.254)"/>
            <path id="패스_56556" d="M527.274 379.764a2.758 2.758 0 0 0 2.758 2.743 2.789 2.789 0 0 0 1.981-.824l1.8 1.74a5.275 5.275 0 1 1 .218-7.086l-1.911 1.655a2.75 2.75 0 0 0-4.856 1.787z" class="cls-2" transform="translate(-481.893 -374.218)"/>
            <path id="패스_56557" d="M544.926 374.68h2.5v10.287h-2.51v-3.535h-3.936v3.535h-2.51V374.68h2.51v4.242h3.939z" class="cls-2" transform="translate(-484.955 -374.261)"/>
            <path id="패스_56558" d="M476.171 404.586v3.17h-2.51v-3.17l-4.071-7.156h2.89l2.432 4.281 2.44-4.281h2.859z" class="cls-2" transform="translate(-469.59 -379.336)"/>
            <path id="패스_56559" d="M493.336 402.543a5.275 5.275 0 1 1-1.545-3.738 5.283 5.283 0 0 1 1.545 3.738zm-2.51 0a2.774 2.774 0 1 0-2.774 2.774 2.774 2.774 0 0 0 2.774-2.774z" class="cls-2" transform="translate(-472.53 -379.298)"/>
            <path id="패스_56560" d="M504.962 397.428h2.525v5.881a4.568 4.568 0 1 1-9.137 0v-5.889h2.51v5.889a2.051 2.051 0 1 0 4.1 0z" class="cls-2" transform="translate(-476.006 -379.334)"/>
            <path id="패스_56561" d="M520.4 403.363l1.764 4.4h-2.758l-1.554-3.923h-2.522v3.923h-2.51V397.45h5.889a3.185 3.185 0 0 1 1.67 5.912zm-.994-2.727a.692.692 0 0 0-.676-.684h-3.38v1.375h3.38a.691.691 0 0 0 .678-.692z" class="cls-2" transform="translate(-479.233 -379.34)"/>
            <path id="패스_56562" d="M536 407.755l-1.461-3.667v3.675H532V397.43h2.611l2.7 6.876 2.711-6.876h2.6v10.3h-2.51v-3.644l-1.461 3.7z" class="cls-2" transform="translate(-483.512 -379.336)"/>
            <path id="패스_56563" d="M549 397.45h2.51v10.287H549z" class="cls-2" transform="translate(-487.304 -379.34)"/>
            <path id="패스_56564" d="M562.16 397.469h2.51v10.286h-2.75l-4.04-6.138v6.114h-2.51v-10.3h2.758l4.032 6.107z" class="cls-2" transform="translate(-488.725 -379.336)"/>
            <path id="패스_56565" d="M579.58 402.6a5.143 5.143 0 0 1-5.135 5.135h-4.375V397.45h4.374a5.151 5.151 0 0 1 5.136 5.15zm-2.51 0a2.634 2.634 0 0 0-2.626-2.634h-1.865v5.26h1.865a2.634 2.634 0 0 0 2.626-2.626z" class="cls-2" transform="translate(-492.004 -379.34)"/>
        </g>
    </g>
</svg>
