<svg xmlns="http://www.w3.org/2000/svg" width="167.294" height="37.691" viewBox="0 0 167.294 37.691">
    <defs>
        <style>
            .cls-1{fill:#fff;stroke:#fff}.cls-2{fill:#44bbc8;stroke:#44bbc8;stroke-miterlimit:10}
        </style>
    </defs>
    <g id="inPHR_mind" transform="translate(.504 .502)">
        <path id="패스_1" d="M537.787 1330.31a1.95 1.95 0 0 1-.559-1.41 1.819 1.819 0 0 1 .578-1.41 1.974 1.974 0 0 1 1.41-.541 1.928 1.928 0 0 1 1.364.541 1.819 1.819 0 0 1 .578 1.41 1.974 1.974 0 0 1-1.987 1.987 1.85 1.85 0 0 1-1.384-.577zm.418 23.71a1.364 1.364 0 0 1-.4-1.014v-16.939a1.364 1.364 0 0 1 1.41-1.41 1.323 1.323 0 0 1 1 .4 1.428 1.428 0 0 1 .377 1.014v16.948a1.414 1.414 0 0 1-.377 1.014 1.324 1.324 0 0 1-1 .4 1.364 1.364 0 0 1-1.01-.4z" class="cls-1" transform="translate(-537.23 -1326.191)"/>
        <path id="패스_2" d="M566.064 1344.491a7.768 7.768 0 0 1 3.183 3.183 10.055 10.055 0 0 1 1.159 4.97v9.4a1.4 1.4 0 0 1-2.378.969 1.333 1.333 0 0 1-.4-.978v-9.395a6.4 6.4 0 0 0-1.787-4.9 6.579 6.579 0 0 0-4.684-1.682 7.311 7.311 0 0 0-3.183.687 5.631 5.631 0 0 0-2.274 1.9 4.635 4.635 0 0 0-.832 2.692v10.7a1.3 1.3 0 0 1-1.364 1.364 1.391 1.391 0 0 1-1.01-.378 1.3 1.3 0 0 1-.4-1v-16.976a1.364 1.364 0 0 1 1.41-1.41 1.324 1.324 0 0 1 1 .4 1.428 1.428 0 0 1 .377 1.014v1.228a8.426 8.426 0 0 1 2.892-2.1 8.947 8.947 0 0 1 3.688-.76 9.713 9.713 0 0 1 4.6 1.073z" class="cls-1" transform="translate(-545.339 -1335.17)"/>
        <path id="패스_3" d="M612.982 1344.8a9.663 9.663 0 0 1 3.638 3.638 10.191 10.191 0 0 1 1.319 5.134 10.3 10.3 0 0 1-1.287 5.111 9.5 9.5 0 0 1-8.476 4.934 9.368 9.368 0 0 1-4.3-.991 8.962 8.962 0 0 1-3.219-2.729v10.586a1.364 1.364 0 0 1-1.41 1.41 1.3 1.3 0 0 1-.991-.4 1.4 1.4 0 0 1-.382-1.014v-8.094a1.157 1.157 0 0 1-.036-.327v-8.49a10.189 10.189 0 0 1 1.319-5.134 9.631 9.631 0 0 1 3.615-3.638 10.582 10.582 0 0 1 10.232 0zm-1.364 15.307a7.011 7.011 0 0 0 2.637-2.692 8.235 8.235 0 0 0 0-7.7 7.276 7.276 0 0 0-12.733 0 7.73 7.73 0 0 0-.96 3.852 8.284 8.284 0 0 0 .036.909.455.455 0 0 1 .036.182 7.276 7.276 0 0 0 2.369 4.625 7 7 0 0 0 4.861 1.819 7.33 7.33 0 0 0 3.742-1.014z" class="cls-1" transform="translate(-570.279 -1335.204)"/>
        <path id="패스_4" d="M659.854 1334.6a7.767 7.767 0 0 1 3.183 3.183 10.055 10.055 0 0 1 1.16 4.97v9.4a1.4 1.4 0 0 1-2.378.969 1.332 1.332 0 0 1-.4-.978v-9.4a6.387 6.387 0 0 0-1.792-4.9 6.562 6.562 0 0 0-4.679-1.682 7.311 7.311 0 0 0-3.183.687 5.63 5.63 0 0 0-2.274 1.9 4.634 4.634 0 0 0-.832 2.692v10.7a1.3 1.3 0 0 1-1.364 1.364 1.364 1.364 0 0 1-1.01-.377 1.3 1.3 0 0 1-.4-1v-25.443a1.364 1.364 0 0 1 1.41-1.41 1.323 1.323 0 0 1 1 .4 1.427 1.427 0 0 1 .377 1.014v9.686a8.428 8.428 0 0 1 2.892-2.1 8.947 8.947 0 0 1 3.688-.759 9.728 9.728 0 0 1 4.6 1.082z" class="cls-1" transform="translate(-596.478 -1325.28)"/>
        <path id="패스_5" d="M702.929 1343.789a1.246 1.246 0 0 1 .882 1.123.977.977 0 0 1-.036.323 1.078 1.078 0 0 1-.455.687 1.649 1.649 0 0 1-.85.182 7.658 7.658 0 0 1-1.119-.073 7.967 7.967 0 0 0-.869-.036 6.626 6.626 0 0 0-4.425 1.446 4.684 4.684 0 0 0-1.719 3.761v10.8a1.364 1.364 0 1 1-2.728 0v-17.021a1.364 1.364 0 0 1 2.728 0v1.592a7.116 7.116 0 0 1 2.674-2.351 7.606 7.606 0 0 1 3.506-.832 6.009 6.009 0 0 1 2.41.4z" class="cls-1" transform="translate(-621.409 -1335.155)"/>
        <path id="패스_6" d="M756.611 1346.373a7.9 7.9 0 0 1 1.9 5.63v10.132a1.819 1.819 0 0 1-.5 1.291 1.91 1.91 0 0 1-2.606 0 1.755 1.755 0 0 1-.514-1.291V1352a4.52 4.52 0 0 0-1.078-3.274 3.833 3.833 0 0 0-2.888-1.119 3.956 3.956 0 0 0-3.029 1.278 4.593 4.593 0 0 0-1.187 3.256v10a1.819 1.819 0 0 1-.5 1.292 1.91 1.91 0 0 1-2.606 0 1.755 1.755 0 0 1-.514-1.292v-10.131a4.521 4.521 0 0 0-1.078-3.274 3.833 3.833 0 0 0-2.888-1.119 4 4 0 0 0-3.065 1.278 4.592 4.592 0 0 0-1.187 3.256v10a1.778 1.778 0 0 1-.5 1.291 1.819 1.819 0 0 1-3.115-1.291v-15.789a1.732 1.732 0 0 1 .514-1.314 1.819 1.819 0 0 1 1.291-.5 1.756 1.756 0 0 1 1.278.482 1.788 1.788 0 0 1 .527 1.255 6.469 6.469 0 0 1 2.2-1.432 7.276 7.276 0 0 1 2.765-.514 7.112 7.112 0 0 1 3.242.723 6.3 6.3 0 0 1 2.355 2.074 7.351 7.351 0 0 1 2.656-2.055 8.257 8.257 0 0 1 3.538-.741 6.511 6.511 0 0 1 4.979 2.019z" class="cls-2" transform="translate(-643.032 -1335.678)"/>
        <path id="패스_7" d="M799.02 1331.53a2.33 2.33 0 1 1 3.295 0 2.33 2.33 0 0 1-3.295 0zm.355 22.705a1.756 1.756 0 0 1-.514-1.3v-15.761a1.715 1.715 0 0 1 .514-1.31 1.955 1.955 0 0 1 2.6 0 1.756 1.756 0 0 1 .5 1.31v15.761a1.819 1.819 0 0 1-.5 1.3 1.914 1.914 0 0 1-2.6 0z" class="cls-2" transform="translate(-679.603 -1326.52)"/>
        <path id="패스_8" d="M828.445 1345.434a7.477 7.477 0 0 1 3.047 3.1 10.263 10.263 0 0 1 1.1 4.907v8.713a1.755 1.755 0 0 1-.514 1.292 1.819 1.819 0 0 1-3.1-1.292v-8.713a5.234 5.234 0 0 0-5.634-5.812 6.079 6.079 0 0 0-2.728.6 4.766 4.766 0 0 0-1.91 1.628 4.006 4.006 0 0 0-.691 2.3v10a1.778 1.778 0 0 1-.5 1.291 1.91 1.91 0 0 1-2.606 0 1.756 1.756 0 0 1-.514-1.292v-15.8a1.732 1.732 0 0 1 .514-1.31 1.96 1.96 0 0 1 2.606 0 1.755 1.755 0 0 1 .5 1.31v.391a7.8 7.8 0 0 1 2.692-1.755 8.9 8.9 0 0 1 3.329-.618 9.1 9.1 0 0 1 4.411 1.046z" class="cls-2" transform="translate(-688.359 -1335.699)"/>
        <path id="패스_9" fill="#44bbc8" stroke="#44bbc8" stroke-miterlimit="10" stroke-width="1.2px" d="M878.791 1327.033a1.769 1.769 0 0 1 .5 1.31v16.148a9.886 9.886 0 0 1-1.292 5 9.549 9.549 0 0 1-8.449 4.838 9.772 9.772 0 0 1-4.975-1.3 9.328 9.328 0 0 1-3.529-3.543 10 10 0 0 1-1.273-5 10.574 10.574 0 0 1 1.187-5 8.941 8.941 0 0 1 3.261-3.524 8.888 8.888 0 0 1 11.441 1.946v-9.55a1.741 1.741 0 0 1 .509-1.31 1.818 1.818 0 0 1 1.3-.5 1.769 1.769 0 0 1 1.32.485zm-6.039 23.255A6.135 6.135 0 0 0 875 1347.9a7.123 7.123 0 0 0 .814-3.4 7.022 7.022 0 0 0-.814-3.383 6.207 6.207 0 0 0-2.251-2.374 6.234 6.234 0 0 0-8.686 2.374 6.82 6.82 0 0 0-.832 3.383 6.925 6.925 0 0 0 .832 3.4 6.235 6.235 0 0 0 2.274 2.392 6.366 6.366 0 0 0 6.412 0z" transform="translate(-713.099 -1325.974)"/>
    </g>
</svg>
