<svg xmlns="http://www.w3.org/2000/svg" width="188.123" height="32.461" viewBox="0 0 188.123 32.461">
    <defs>
        <style>
            .cls-1{fill:#44bbc8}.cls-2{fill:#3a4b5f}
        </style>
    </defs>
    <g id="symlogo_irb" transform="translate(-730.809 -421.128)">
        <path id="패스_56549" d="M358.2 380.538l.13.308a4.106 4.106 0 0 0 2.543 1.677c2.284.737 4.706 1.256 6.95 2.2a15.6 15.6 0 0 1 2.633 1.426 8.579 8.579 0 0 1 2.844 3.151 8.4 8.4 0 0 1-.081 7.6 11.421 11.421 0 0 1-5.743 5.176 16.889 16.889 0 0 1-7.728 1.126 19.538 19.538 0 0 1-9.988-3.459 1.717 1.717 0 0 1-.178-2.665l3.337-3.1a1.742 1.742 0 0 1 2.252-.073 11.866 11.866 0 0 0 7.468 2.479c1.733-.049 3.8-.81 3.5-2.851a2.144 2.144 0 0 0-.13-.389 4.5 4.5 0 0 0-3.062-2.244c-1.9-.648-3.888-1.037-5.784-1.685a11.575 11.575 0 0 1-5.1-3.062 8.246 8.246 0 0 1-2.155-5.67 8.578 8.578 0 0 1 2.284-5.67 11.769 11.769 0 0 1 5.913-3.362 18.193 18.193 0 0 1 8.505-.259 18.632 18.632 0 0 1 6.172 2.43 1.725 1.725 0 0 1 .308 2.714l-.956.923c-.713.713-1.458 1.418-2.2 2.13a1.7 1.7 0 0 1-2.211.122 8.627 8.627 0 0 0-7.29-1.62c-1.245.273-2.671 1.173-2.233 2.647z" class="cls-1" transform="translate(381.779 50.321)"/>
        <path id="패스_56550" d="M401.219 393.607v7.121a1.721 1.721 0 0 1-1.721 1.721h-3.914a1.722 1.722 0 0 1-1.721-1.721v-7.121a1.623 1.623 0 0 0-.227-.853l-10.247-18.01a1.721 1.721 0 0 1 1.494-2.574h4.517a1.73 1.73 0 0 1 1.494.869l6.642 11.676 6.642-11.677a1.73 1.73 0 0 1 1.494-.869h4.45a1.721 1.721 0 0 1 1.494 2.566l-10.182 18.018a1.729 1.729 0 0 0-.215.854z" class="cls-1" transform="translate(374.682 50.735)"/>
        <path id="패스_56551" d="M434.83 398.828l-2.83-7.194v9.054a1.721 1.721 0 0 1-1.721 1.721h-3.914a1.721 1.721 0 0 1-1.721-1.721v-26.8a1.721 1.721 0 0 1 1.721-1.722h4.766a1.722 1.722 0 0 1 1.624 1.088l7.462 19.074 7.527-19.074a1.722 1.722 0 0 1 1.624-1.088h4.726a1.721 1.721 0 0 1 1.721 1.722v26.755a1.721 1.721 0 0 1-1.721 1.721h-3.914a1.721 1.721 0 0 1-1.721-1.721v-9.054l-2.858 7.235a5.781 5.781 0 0 1-5.383 3.654 5.79 5.79 0 0 1-5.388-3.65z" class="cls-1" transform="translate(364.408 50.736)"/>
        <g id="그룹_3721" transform="translate(827.404 422.905)">
            <path id="패스_56552" d="M473.177 377.624l.049.105a1.462 1.462 0 0 0 .91.6 22.155 22.155 0 0 1 2.485.812 5.288 5.288 0 0 1 .942.512 3.061 3.061 0 0 1 1.015 1.121 3.029 3.029 0 0 1 0 2.72 4.109 4.109 0 0 1-2.046 1.851 6.057 6.057 0 0 1-2.761.4 6.683 6.683 0 0 1-4.149-1.713l2.111-1.957a4.231 4.231 0 0 0 3.069 1.21c.617 0 1.356-.292 1.251-1.023a.88.88 0 0 0-.049-.138 1.624 1.624 0 0 0-1.1-.812c-.674-.235-1.388-.374-2.062-.609a4.156 4.156 0 0 1-1.827-1.088 3 3 0 0 1-.771-2.022 3.061 3.061 0 0 1 .812-2.022 4.206 4.206 0 0 1 2.111-1.2 6.723 6.723 0 0 1 5.9 1.218l-.877.812c-.39.39-.812.771-1.2 1.161a3.094 3.094 0 0 0-2.98-.942c-.468.151-.98.46-.833 1.004z" class="cls-2" transform="translate(-469.596 -374.141)"/>
            <path id="패스_56553" d="M483.4 374.65h8.437v2.631h-5.814v1.437h4.547v2.623h-4.547v1.437h5.814v2.622H483.4z" class="cls-2" transform="translate(-472.186 -374.236)"/>
            <path id="패스_56554" d="M503.706 384.1h-4.393l-.512 1.324H496l4.149-10.775h2.777l4.166 10.775h-2.842zm-1-2.623l-1.2-3.118-1.194 3.118z" class="cls-2" transform="translate(-474.555 -374.236)"/>
            <path id="패스_56555" d="M519.237 380.829l1.851 4.6h-2.883l-1.624-4.1h-2.639v4.1h-2.622V374.65h6.155a3.329 3.329 0 0 1 1.738 6.179zm-1.031-2.85a.714.714 0 0 0-.706-.706h-3.532v1.427h3.532a.723.723 0 0 0 .706-.721z" class="cls-2" transform="translate(-477.436 -374.237)"/>
            <path id="패스_56556" d="M527.388 380a2.883 2.883 0 0 0 2.883 2.866 2.915 2.915 0 0 0 2.071-.861l1.884 1.819a5.513 5.513 0 1 1 .227-7.405l-2 1.73a2.874 2.874 0 0 0-5.075 1.868z" class="cls-2" transform="translate(-479.959 -374.205)"/>
            <path id="패스_56557" d="M545.218 374.68h2.615v10.751h-2.623v-3.694h-4.117v3.694h-2.623V374.68h2.623v4.433h4.117z" class="cls-2" transform="translate(-482.54 -374.242)"/>
            <path id="패스_56558" d="M476.467 404.908v3.313h-2.623v-3.313l-4.255-7.478h3.021l2.542 4.474 2.55-4.474h2.988z" class="cls-2" transform="translate(-469.59 -378.519)"/>
            <path id="패스_56559" d="M493.813 402.782a5.514 5.514 0 1 1-1.615-3.907 5.522 5.522 0 0 1 1.615 3.907zm-2.623 0a2.9 2.9 0 1 0-2.9 2.9 2.9 2.9 0 0 0 2.9-2.9z" class="cls-2" transform="translate(-472.068 -378.487)"/>
            <path id="패스_56560" d="M505.26 397.428h2.64v6.147a4.775 4.775 0 1 1-9.549 0v-6.155h2.623v6.155a2.144 2.144 0 1 0 4.287 0z" class="cls-2" transform="translate(-474.997 -378.517)"/>
            <path id="패스_56561" d="M520.745 403.629l1.843 4.6h-2.883l-1.624-4.1h-2.639v4.1h-2.622V397.45h6.155a3.329 3.329 0 0 1 1.746 6.179zm-1.039-2.85a.723.723 0 0 0-.707-.715h-3.532v1.436H519a.723.723 0 0 0 .706-.721z" class="cls-2" transform="translate(-477.718 -378.523)"/>
            <path id="패스_56562" d="M536.182 408.221l-1.526-3.833v3.841H532v-10.8h2.728l2.826 7.186 2.834-7.186h2.72V408.2h-2.623v-3.808l-1.527 3.865z" class="cls-2" transform="translate(-481.324 -378.519)"/>
            <path id="패스_56563" d="M549 397.45h2.623v10.75H549z" class="cls-2" transform="translate(-484.52 -378.523)"/>
            <path id="패스_56564" d="M562.467 397.471h2.623v10.751h-2.875l-4.222-6.415v6.39h-2.623V397.43h2.883l4.214 6.382z" class="cls-2" transform="translate(-485.717 -378.519)"/>
            <path id="패스_56565" d="M580.009 402.834a5.375 5.375 0 0 1-5.367 5.367h-4.572V397.45h4.572a5.383 5.383 0 0 1 5.367 5.384zm-2.623 0a2.752 2.752 0 0 0-2.745-2.753h-1.949v5.5h1.949a2.753 2.753 0 0 0 2.745-2.744z" class="cls-2" transform="translate(-488.481 -378.523)"/>
        </g>
    </g>
</svg>
