<svg xmlns="http://www.w3.org/2000/svg" width="44" height="47" viewBox="0 0 44 47">
    <g fill="none">
        <path stroke="#205072" stroke-width="1.5px" d="M13.891 3.856c-3.058 0-5.537 4.083-5.537 9.119 0 2.8.693 5.774 1.384 10.362.541 3.594 1.859 6.573 4.152 6.573s3.83-1.986 3.83-5.617c0-1.236-1.017-3.206-1.062-4.886-.082-3.031 2.033-4.241 2.033-7.043 0-5.036-1.744-8.508-4.8-8.508zm14.94 10.422c-3.057 0-4.8 3.472-4.8 8.508 0 2.8 2.115 4.012 2.033 7.043C26.017 31.51 25 33.479 25 34.716c0 3.631 1.537 5.617 3.83 5.617s3.611-2.979 4.152-6.573c.691-4.588 1.384-7.56 1.384-10.362.002-5.037-2.477-9.12-5.535-9.12z" transform="translate(0 -.308) translate(.871 1.485)"/>
    </g>
</svg>
