<svg xmlns="http://www.w3.org/2000/svg" width="184" height="101.983" viewBox="0 0 184 101.983">
    <defs>
        <style>
            .cls-2,.cls-3{font-family:MalgunGothic,Malgun Gothic;font-weight:400}.cls-3{font-family:Roboto-Regular,Roboto}
        </style>
    </defs>
    <g id="d_n_al" transform="translate(-88 -383.017)">
        <text id="IRB_동의서_정보가_없습니다._" fill="#bfc0c6" font-family="Roboto-Bold, Roboto" font-size="15px" font-weight="700" letter-spacing="-0.037em" transform="translate(180 481)">
            <tspan x="-91.434" y="0">IRB </tspan><tspan y="0" class="cls-2">동의서</tspan><tspan y="0" class="cls-3"> </tspan><tspan y="0" class="cls-2">정보가</tspan><tspan y="0" class="cls-3"> </tspan><tspan y="0" class="cls-2">없습니다</tspan><tspan y="0" class="cls-3">.</tspan>
        </text>
        <path id="Icon_notes" fill="#d8dae2" d="M58.607 3H9.179a6.17 6.17 0 0 0-6.148 6.179L3 64.785l12.357-12.357h43.25a6.2 6.2 0 0 0 6.179-6.179V9.179A6.2 6.2 0 0 0 58.607 3zM21.536 40.071h-6.179v-6.178h6.179zm0-9.268h-6.179v-6.178h6.179zm0-9.268h-6.179v-6.178h6.179zm21.625 18.536H27.714v-6.178h15.447zm9.267-9.271H27.714v-6.175h24.714zm0-9.268H27.714v-6.175h24.714z" transform="translate(146 380.017)"/>
    </g>
</svg>
