<svg xmlns="http://www.w3.org/2000/svg" width="22.631" height="22.634" viewBox="0 0 22.631 22.634">
    <path fill="#44bbc8" d="M13.438 8.487V9.9a.532.532 0 0 1-.53.53h-2.476v2.475a.532.532 0 0 1-.53.53H8.487a.532.532 0 0 1-.53-.53v-2.473H5.481a.532.532 0 0 1-.53-.53V8.487a.532.532 0 0 1 .53-.53h2.475V5.481a.532.532 0 0 1 .53-.53H9.9a.532.532 0 0 1 .53.53v2.475h2.475a.532.532 0 0 1 .533.531zm8.885 12.584l-1.251 1.251a1.056 1.056 0 0 1-1.5 0l-4.411-4.407a1.06 1.06 0 0 1-.309-.751v-.721a9.19 9.19 0 1 1 1.591-1.591h.721a1.06 1.06 0 0 1 .751.309l4.407 4.407a1.07 1.07 0 0 1 0 1.503zM15.206 9.194a6.012 6.012 0 1 0-6.012 6.012 6.006 6.006 0 0 0 6.012-6.012z"/>
</svg>
