<svg xmlns="http://www.w3.org/2000/svg" width="26" height="27" viewBox="0 0 26 27">
    <g>
        <path fill="#7e8da0" d="M19.048 12.75A2.2 2.2 0 0 0 17 14.15h-1.752l-1.332-3.423a.844.844 0 0 0-.806-.581h-.017a.844.844 0 0 0-.8.615L10.87 16.5 8.515 4.126a.877.877 0 0 0-.836-.751.839.839 0 0 0-.823.687L4.723 14.15H2.25v1.7h3.139a.844.844 0 0 0 .823-.645l1.3-6.813 2.297 11.964a.816.816 0 0 0 .789.666h.051a.81.81 0 0 0 .814-.573l1.705-6.91.658 1.726a.844.844 0 0 0 .806.581h2.392a2.2 2.2 0 0 0 2.019 1.315 2.158 2.158 0 0 0 1.561-.67 2.256 2.256 0 0 0 .645-1.578 2.154 2.154 0 0 0-2.201-2.163z" transform="translate(-15 -98) translate(13.75 99.625)"/>
    </g>
</svg>
