<svg xmlns="http://www.w3.org/2000/svg" width="360" height="166" viewBox="0 0 360 166">
    <defs>
        <clipPath id="clip-path">
            <path id="사각형_1798" d="M0 0H360V166H0z" class="cls-1" transform="translate(0 136)"/>
        </clipPath>
        <clipPath id="clip-path-2">
            <path id="사각형_1498" d="M0 0H385V168H0z" class="cls-1"/>
        </clipPath>
        <linearGradient id="linear-gradient" x1="1.032" x2=".639" y1="-.827" y2="1.821" gradientUnits="objectBoundingBox">
            <stop offset="0" stop-color="#16d9a4"/>
            <stop offset="1" stop-color="#81a7ff"/>
        </linearGradient>
        <style>
            .cls-1{fill:#fff}
        </style>
    </defs>
    <g id="top_background" clip-path="url(#clip-path)" transform="translate(0 -136)">
        <g id="구성_요소_186_1" transform="translate(-6 135)">
            <g id="마스크_그룹_1" clip-path="url(#clip-path-2)">
                <path id="sound-wave" fill="url(#linear-gradient)" d="M0 90.441c23.049-4.811 77.255.192 99.609 6.831 10.308 3.079-8.919 3.56 0 8.852 8.455 5.1 15.636 12.124 25.713 15.106 9.5 2.79 18.879.866 27.682-2.6 16.331-6.447 32.315-14.337 50.5-7.986 16.447 5.677 27.1 19.34 38.454 30.116 9.961 9.429 22.354 18.185 38.106 18.859 29.535 1.347 1.04-33.965 19.571-48.975 20.848-16.838 94.516-19.629 124.4-13.374a26.646 26.646 0 0 1 10.308 4.041V-78.75H0V90.441z" transform="translate(-16.869 79.75)"/>
            </g>
            <g id="빼기_4" fill="none" stroke="none" opacity="0.25">
                <path d="M170.407 135a176.3 176.3 0 0 1-35.268-3.555 174.007 174.007 0 0 1-32.85-10.2 174.943 174.943 0 0 1-29.726-16.135 176.247 176.247 0 0 1-25.9-21.369 176.182 176.182 0 0 1-21.369-25.9A174.944 174.944 0 0 1 9.159 28.118 174.223 174.223 0 0 1 0 0h47.769c16.285 54.757 67.537 93 124.637 93a130.429 130.429 0 0 0 26-2.612v42.382a177.126 177.126 0 0 1-27.999 2.23zm4-62a109.789 109.789 0 0 1-21.967-2.215 108.381 108.381 0 0 1-20.461-6.351 108.884 108.884 0 0 1-18.515-10.049 109.762 109.762 0 0 1-16.132-13.31 109.688 109.688 0 0 1-13.309-16.132 109.018 109.018 0 0 1-10.05-18.515c-.886-2.092-1.72-4.255-2.48-6.428h126.914v70.349c-.659.149-1.342.3-2.032.437A109.788 109.788 0 0 1 174.407 73z" transform="translate(169.944 1)"/>
                <path fill="#fff" d="M170.407 134c9.03 0 18.109-.702 27-2.085V91.606c-8.189 1.589-16.593 2.394-25 2.394-57.29 0-108.74-38.205-125.381-93H1.266c2.204 9.122 5.168 18.108 8.814 26.728 4.36 10.31 9.758 20.253 16.043 29.556 6.222 9.211 13.37 17.875 21.247 25.752 7.874 7.874 16.539 15.023 25.752 21.247 9.303 6.286 19.247 11.683 29.556 16.043 10.5 4.442 21.488 7.853 32.661 10.138C146.802 132.81 158.6 134 170.407 134m4-62c7.328 0 14.652-.737 21.767-2.194.42-.086.832-.173 1.233-.26V1H72.912c.62 1.703 1.285 3.393 1.982 5.038 2.707 6.4 6.057 12.571 9.958 18.345 3.86 5.716 8.297 11.094 13.187 15.984 4.884 4.884 10.262 9.321 15.986 13.189 5.773 3.901 11.945 7.251 18.344 9.957 6.521 2.758 13.341 4.875 20.272 6.292C159.756 71.262 167.079 72 174.407 72m-4 63c-11.874 0-23.74-1.197-35.268-3.556-11.238-2.299-22.29-5.73-32.85-10.197-10.369-4.385-20.37-9.814-29.726-16.135-9.267-6.26-17.98-13.45-25.9-21.369-7.922-7.922-15.111-16.636-21.368-25.9-6.322-9.355-11.75-19.357-16.136-29.725C5.327 19.059 2.245 9.598 0 0h47.77c16.284 54.757 67.536 93 124.637 93 8.751 0 17.5-.879 26-2.612v42.382c-9.213 1.48-18.634 2.23-28 2.23zm4-62c-7.395 0-14.786-.745-21.967-2.215-6.995-1.43-13.879-3.567-20.46-6.351-6.459-2.731-12.688-6.112-18.515-10.05-5.777-3.903-11.205-8.38-16.133-13.31-4.935-4.935-9.413-10.363-13.309-16.131-3.937-5.827-7.318-12.057-10.05-18.515-.886-2.092-1.72-4.255-2.48-6.428h126.914v70.349c-.66.148-1.343.295-2.032.436-7.181 1.47-14.572 2.215-21.968 2.215z" transform="translate(169.944 1)"/>
            </g>
        </g>
    </g>
</svg>
