<svg xmlns="http://www.w3.org/2000/svg" width="40" height="40" viewBox="0 0 40 40">
    <defs>
        <style>
            .cls-2{fill:#fff}
        </style>
    </defs>
    <g id="ntfctIcon" transform="translate(-16 -143)">
        <g id="ntfctIcon-2">
            <g id="그룹_207" transform="translate(-7315 -2414)">
                <path id="패스_53107" fill="#28a1ae" d="M20 0A20 20 0 1 1 0 20 20 20 0 0 1 20 0z" transform="translate(7331 2557)"/>
            </g>
        </g>
        <g id="그룹_775" transform="translate(21 149.366)">
            <g id="그룹_3723" transform="translate(3 .634)">
                <path id="패스_813" d="M64.541 585.513H62.9a.836.836 0 0 0 0 1.672h1.644a.152.152 0 0 1 .166.138v5.27a4.041 4.041 0 0 1-8.061 0v-5.27a.152.152 0 0 1 .159-.138h1.651a.836.836 0 0 0 0-1.672H56.8a1.879 1.879 0 0 0-1.934 1.81v5.27a5.575 5.575 0 0 0 5.1 5.367v.1a5.817 5.817 0 0 1-2.411 4.393.166.166 0 0 0-.069.131.11.11 0 0 0 .055.117l.87.891h.117a.813.813 0 0 0 .214-.055l.124-.1a5.719 5.719 0 0 0 1.382-1.513 7.861 7.861 0 0 0 1.382-3.744l.041-.276a5.919 5.919 0 0 0 3.1-1.5 5.2 5.2 0 0 0 1.706-3.827v-5.271a1.872 1.872 0 0 0-1.934-1.81" class="cls-2" transform="translate(-48.57 -579.925)"/>
                <path id="패스_814" d="M62.964 577.43H52.07a6.341 6.341 0 0 0-6.32 6.355v10.955a6.341 6.341 0 0 0 6.32 6.355h3.212a.691.691 0 0 0 0-1.382H52.07a4.932 4.932 0 0 1-4.918-4.946v-10.982a4.932 4.932 0 0 1 4.918-4.946h10.894a4.939 4.939 0 0 1 4.918 4.946v10.955a4.939 4.939 0 0 1-4.918 4.946h-.594a.691.691 0 0 0-.691.691v3.1l-4.234-2.169a.689.689 0 0 0-.622 1.23l5.16 2.639a.694.694 0 0 0 .187.062.637.637 0 0 0 .2 0 .691.691 0 0 0 .691-.691V601.1a6.341 6.341 0 0 0 6.217-6.355v-10.96a6.341 6.341 0 0 0-6.32-6.355" class="cls-2" transform="translate(-45.75 -577.43)"/>
            </g>
        </g>
    </g>
</svg>
