<svg xmlns="http://www.w3.org/2000/svg" width="20" height="20" viewBox="0 0 20 20">
    <path fill="#44bbc8" d="M22.833 4.5H6.167A1.665 1.665 0 0 0 4.5 6.167v16.666A1.665 1.665 0 0 0 6.167 24.5h16.666a1.665 1.665 0 0 0 1.667-1.667V6.167A1.665 1.665 0 0 0 22.833 4.5zM20.1 11.505L13.135 18.5h-.005a.941.941 0 0 1-.6.286.912.912 0 0 1-.609-.3L9 15.573a.208.208 0 0 1 0-.3l.927-.927a.2.2 0 0 1 .292 0l2.313 2.313 6.354-6.4a.206.206 0 0 1 .146-.062.189.189 0 0 1 .146.063l.911.943a.205.205 0 0 1 .011.302z" transform="translate(-4.5 -4.5)"/>
</svg>
