<svg xmlns="http://www.w3.org/2000/svg" width="52" height="52" viewBox="0 0 52 52">
    <defs>
        <clipPath id="clip-path">
            <path id="사각형_1520" fill="#19d288" d="M0 0H26V52H0z" transform="translate(15 569)"/>
        </clipPath>
        <clipPath id="clip-path-2">
            <path id="사각형_1519" fill="#2b9168" d="M0 0H26V52H0z" transform="translate(0 2)"/>
        </clipPath>
        <style>
            .cls-4{fill:none}.cls-6{stroke:none}
        </style>
    </defs>
    <g id="moodgraph-3" transform="translate(-201 -248)">
        <g id="마스크_그룹_11" clip-path="url(#clip-path)" transform="translate(186 -321)">
            <g id="패스_53330" class="cls-4">
                <path d="M25 0A25 25 0 1 1 5.166 9.779 25 25 0 0 1 25 0z" class="cls-6" transform="translate(16 570)"/>
                <path fill="#14817e" d="M25 4c-6.578 0-12.796 3.057-16.634 8.18-1.419 1.89-2.51 3.93-3.242 6.059C4.378 20.406 4 22.681 4 25c0 5.61 2.184 10.883 6.15 14.85C14.118 43.815 19.39 46 25 46c5.61 0 10.883-2.184 14.85-6.15C43.815 35.882 46 30.61 46 25c0-5.61-2.184-10.883-6.15-14.85C35.882 6.185 30.61 4 25 4m0-4c13.807 0 25 11.193 25 25S38.807 50 25 50 0 38.807 0 25c0-5.62 1.854-10.806 5.166-15.221C9.544 3.936 16.812 0 25 0z" transform="translate(16 570)"/>
            </g>
        </g>
        <g id="마스크_그룹_10" clip-path="url(#clip-path-2)" transform="translate(227 246)">
            <g id="패스_53329" class="cls-4">
                <path d="M25 0a25 25 0 1 0 25 25A25 25 0 0 0 25 0z" class="cls-6" transform="translate(-25 3)"/>
                <path fill="#19d288" d="M25 4c-5.61 0-10.883 2.184-14.85 6.15C6.185 14.118 4 19.39 4 25c0 5.61 2.184 10.883 6.15 14.85C14.118 43.815 19.39 46 25 46c5.61 0 10.883-2.184 14.85-6.15C43.815 35.882 46 30.61 46 25c0-5.61-2.184-10.883-6.15-14.85C35.882 6.185 30.61 4 25 4m0-4c13.807 0 25 11.193 25 25S38.807 50 25 50 0 38.807 0 25 11.193 0 25 0z" transform="translate(-25 3)"/>
            </g>
        </g>
    </g>
</svg>
