<svg xmlns="http://www.w3.org/2000/svg" width="26" height="27" viewBox="0 0 26 27">
    <g>
        <path fill="#7e8da0" d="M0 18.643a1.929 1.929 0 0 0 1.929 1.929h14.142A1.929 1.929 0 0 0 18 18.643V7.714H0zm12.857-7.875a.484.484 0 0 1 .482-.482h1.607a.484.484 0 0 1 .482.482v1.607a.484.484 0 0 1-.482.482h-1.607a.484.484 0 0 1-.482-.482zm0 5.143a.484.484 0 0 1 .482-.482h1.607a.484.484 0 0 1 .482.482v1.607a.484.484 0 0 1-.482.482h-1.607a.484.484 0 0 1-.482-.482zm-5.143-5.143a.484.484 0 0 1 .482-.482H9.8a.484.484 0 0 1 .482.482v1.607a.484.484 0 0 1-.482.482H8.2a.484.484 0 0 1-.482-.482zm0 5.143a.484.484 0 0 1 .482-.482H9.8a.484.484 0 0 1 .482.482v1.607A.484.484 0 0 1 9.8 18H8.2a.484.484 0 0 1-.482-.482zm-5.143-5.143a.484.484 0 0 1 .482-.482h1.608a.484.484 0 0 1 .482.482v1.607a.484.484 0 0 1-.482.482H3.054a.484.484 0 0 1-.482-.482zm0 5.143a.484.484 0 0 1 .482-.482h1.608a.484.484 0 0 1 .482.482v1.607a.484.484 0 0 1-.482.482H3.054a.484.484 0 0 1-.482-.482zm13.5-13.339h-1.928V.643A.645.645 0 0 0 13.5 0h-1.286a.645.645 0 0 0-.643.643v1.928H6.429V.643A.645.645 0 0 0 5.786 0H4.5a.645.645 0 0 0-.643.643v1.928H1.929A1.929 1.929 0 0 0 0 4.5v1.929h18V4.5a1.929 1.929 0 0 0-1.929-1.929z" transform="translate(-15 -224) translate(16 227)"/>
    </g>
</svg>
