<svg xmlns="http://www.w3.org/2000/svg" width="26" height="27" viewBox="0 0 26 27">
    <g>
        <path fill="#7e8da0" d="M9.5.562a9.5 9.5 0 1 0 9.5 9.5 9.5 9.5 0 0 0-9.5-9.5zm0 3.677a3.371 3.371 0 1 1-3.371 3.372A3.371 3.371 0 0 1 9.5 4.24zm0 13.177A7.341 7.341 0 0 1 3.888 14.8a4.271 4.271 0 0 1 3.773-2.291.937.937 0 0 1 .272.042 5.072 5.072 0 0 0 1.567.264 5.053 5.053 0 0 0 1.567-.264.937.937 0 0 1 .272-.042 4.271 4.271 0 0 1 3.773 2.291A7.341 7.341 0 0 1 9.5 17.417z" transform="translate(-15 -296) translate(16 299.438)"/>
    </g>
</svg>
