<svg xmlns="http://www.w3.org/2000/svg" width="26" height="27" viewBox="0 0 26 27">
    <g>
        <path fill="#7e8da0" d="M21.932 14a2.444 2.444 0 0 1 1.568-2.28 9.687 9.687 0 0 0-1.173-2.825 2.478 2.478 0 0 1-.995.213A2.439 2.439 0 0 1 19.1 5.672 9.663 9.663 0 0 0 16.281 4.5a2.443 2.443 0 0 1-4.562 0 9.693 9.693 0 0 0-2.825 1.172 2.439 2.439 0 0 1-2.232 3.433 2.4 2.4 0 0 1-.995-.213 9.9 9.9 0 0 0-1.167 2.83 2.443 2.443 0 0 1 0 4.561 9.687 9.687 0 0 0 1.173 2.825 2.44 2.44 0 0 1 3.227 3.22 9.749 9.749 0 0 0 2.824 1.172 2.439 2.439 0 0 1 4.552 0 9.693 9.693 0 0 0 2.824-1.172 2.443 2.443 0 0 1 3.221-3.22 9.744 9.744 0 0 0 1.179-2.825A2.456 2.456 0 0 1 21.932 14zm-7.887 3.95A3.957 3.957 0 1 1 18 13.993a3.957 3.957 0 0 1-3.955 3.957z" transform="translate(-15 -359) translate(11.5 358.5)"/>
    </g>
</svg>
