<svg xmlns="http://www.w3.org/2000/svg" width="46.806" height="46.802" viewBox="0 0 46.806 46.802">
    <defs>
        <style>
            .cls-2{fill:#bbbec2}
        </style>
    </defs>
    <g id="em_happy_n" transform="translate(1 1)">
        <ellipse id="타원_300" cx="22.403" cy="22.401" fill="#eeeff1" stroke="#bbbec2" stroke-width="2px" rx="22.403" ry="22.401"/>
        <path id="패스_53552" d="M303.169 99.128a1.229 1.229 0 0 1-1.229-1.243 2.2 2.2 0 1 0-4.407 0 1.243 1.243 0 1 1-2.472 0 4.675 4.675 0 1 1 9.35 0 1.243 1.243 0 0 1-1.242 1.243z" class="cls-2" transform="translate(-286.488 -79.964)"/>
        <path id="패스_53553" d="M316.129 99.053a1.243 1.243 0 0 1-1.243-1.243 2.2 2.2 0 1 0-4.393 0 1.243 1.243 0 1 1-2.472 0 4.675 4.675 0 0 1 9.336 0 1.229 1.229 0 0 1-1.229 1.243z" class="cls-2" transform="translate(-281.14 -79.887)"/>
        <path id="패스_53554" d="M317.207 102.66a.636.636 0 0 1 .636.664 8.814 8.814 0 0 1-3.517 6.3 10.776 10.776 0 0 1-13.093 0 8.884 8.884 0 0 1-3.5-6.3.636.636 0 0 1 .636-.664z" class="cls-2" transform="translate(-285.383 -76.066)"/>
        <path id="패스_53555" fill="#d1d5da" d="M313.3 108.757a10.776 10.776 0 0 1-13.093 0 7.358 7.358 0 0 1 13.093 0z" transform="translate(-284.361 -75.2)"/>
    </g>
</svg>
