<svg xmlns="http://www.w3.org/2000/svg" width="23.204" height="21.552" viewBox="0 0 23.204 21.552">
    <path fill="#1178b4" d="M22.766 14.824a2.688 2.688 0 0 0-2.507 1.71h-2.135L16.5 12.353a1.031 1.031 0 0 0-.984-.71h-.021a1.031 1.031 0 0 0-.974.751l-1.741 7.015L9.9 4.292a1.071 1.071 0 0 0-1.021-.917 1.024 1.024 0 0 0-1.005.839L5.27 16.534H2.25v2.072h3.834a1.031 1.031 0 0 0 1.005-.787L8.679 9.5l2.8 14.615a1 1 0 0 0 .964.813h.062a.99.99 0 0 0 .995-.7l2.083-8.439.8 2.109a1.031 1.031 0 0 0 .984.71h2.922a2.687 2.687 0 0 0 2.466 1.606 2.636 2.636 0 0 0 1.907-.819 2.756 2.756 0 0 0 .787-1.927 2.631 2.631 0 0 0-2.683-2.644z" transform="translate(-2.25 -3.375)"/>
</svg>
