<svg xmlns="http://www.w3.org/2000/svg" width="17" height="22.667" viewBox="0 0 17 22.667">
    <path fill="#1178b4" d="M14.875 2.833h-3.542a2.833 2.833 0 0 0-5.667 0H2.125A2.126 2.126 0 0 0 0 4.958v15.584a2.126 2.126 0 0 0 2.125 2.125h12.75A2.126 2.126 0 0 0 17 20.542V4.958a2.126 2.126 0 0 0-2.125-2.125zM8.5 1.771a1.063 1.063 0 1 1-1.062 1.062A1.06 1.06 0 0 1 8.5 1.771zm4.25 13.458a.355.355 0 0 1-.354.354H9.917v2.479a.355.355 0 0 1-.354.354H7.438a.355.355 0 0 1-.354-.354v-2.479H4.6a.355.355 0 0 1-.354-.354V13.1a.355.355 0 0 1 .354-.35h2.483v-2.479a.355.355 0 0 1 .354-.354h2.126a.355.355 0 0 1 .354.354v2.479H12.4a.355.355 0 0 1 .354.354zm0-8.5a.355.355 0 0 1-.354.354H4.6a.355.355 0 0 1-.354-.354v-.708a.355.355 0 0 1 .354-.354h7.8a.355.355 0 0 1 .354.354z"/>
</svg>
