<svg xmlns="http://www.w3.org/2000/svg" width="25.599" height="24" viewBox="0 0 25.599 24">
    <defs>
        <clipPath id="clip-path">
            <path id="Icon_ionic-md-eye-off" d="M13.252 8.711a5.145 5.145 0 0 1 5 5.269 5.342 5.342 0 0 1-.358 1.928l2.921 3.075a12.452 12.452 0 0 0 3.432-5 11.869 11.869 0 0 0-11.007-7.9 11.245 11.245 0 0 0-3.981.735l2.16 2.278a4.7 4.7 0 0 1 1.833-.385zm-10-2.872l2.283 2.4.465.488a12.353 12.353 0 0 0-3.75 5.254 11.857 11.857 0 0 0 11 7.9A11.26 11.26 0 0 0 17.631 21l.422.443 2.931 3.075 1.271-1.339L4.518 4.5zm5.528 5.822l1.551 1.631a3.161 3.161 0 0 0-.079.683 3.079 3.079 0 0 0 3 3.158 2.666 2.666 0 0 0 .648-.083l1.551 1.631a4.723 4.723 0 0 1-2.2.558 5.145 5.145 0 0 1-5-5.269 5.467 5.467 0 0 1 .528-2.309zm4.31-.818l3.152 3.32.02-.167a3.079 3.079 0 0 0-3-3.158z" data-name="Icon ionic-md-eye-off" transform="translate(302.75 351.921)"/>
        </clipPath>
    </defs>
    <g id="Icon_view_pw_off" transform="translate(-302.739 -354)">
        <g id="Icon_view_pw" opacity="0.3" transform="translate(304 354)">
            <path id="Box" fill="none" d="M0 0H24V24H0z"/>
        </g>
        <path id="패스_54704" fill="#dcdddf" stroke="#dcdddf" d="M5.9 4.68a1 1 0 0 0-1.156 0 .528.528 0 0 0 0 .881L25.183 21.24a.989.989 0 0 0 .788.159.878.878 0 0 0 .368-.163.528.528 0 0 0 0-.881z" data-name="패스 54704" transform="rotate(9 -2077.11 2095.355)"/>
        <g id="마스크_그룹_4" clip-path="url(#clip-path)" data-name="마스크 그룹 4">
            <path id="패스_54702" fill="#dcdddf" d="M24-39a11.869 11.869 0 0 0-11 8 11.869 11.869 0 0 0 11 8 11.869 11.869 0 0 0 11-8 11.869 11.869 0 0 0-11-8zm0 13.333A5.177 5.177 0 0 1 19-31a5.177 5.177 0 0 1 5-5.333A5.177 5.177 0 0 1 29-31a5.177 5.177 0 0 1-5 5.333zm0-8.533a3.1 3.1 0 0 0-3 3.2 3.1 3.1 0 0 0 3 3.2 3.1 3.1 0 0 0 3-3.2 3.1 3.1 0 0 0-3-3.2z" data-name="패스 54702" transform="translate(292 397)"/>
        </g>
    </g>
</svg>
