<svg xmlns="http://www.w3.org/2000/svg" width="310" height="168" viewBox="0 0 310 168">
    <defs>
        <filter id="패스_54429" width="310" height="140" x="0" y="0" filterUnits="userSpaceOnUse">
            <feOffset dy="3"/>
            <feGaussianBlur result="blur" stdDeviation="3"/>
            <feFlood flood-opacity=".161"/>
            <feComposite in2="blur" operator="in"/>
            <feComposite in="SourceGraphic"/>
        </filter>
        <filter id="사각형_1640" width="61" height="121" x="240" y="28" filterUnits="userSpaceOnUse">
            <feOffset dy="3"/>
            <feGaussianBlur result="blur-2" stdDeviation="3"/>
            <feFlood flood-opacity=".161"/>
            <feComposite in2="blur-2" operator="in"/>
            <feComposite in="SourceGraphic"/>
        </filter>
        <style>
            .cls-1{fill:#fff}.cls-2{fill:#7e8da0}.cls-2,.cls-3{font-size:13px}.cls-11,.cls-2{font-family:MalgunGothic,Malgun Gothic}.cls-2,.cls-3{letter-spacing:-.03em}.cls-3{fill:#3a4b5f;font-family:Roboto-Medium,Roboto;font-weight:500}.cls-4{fill:#e5e5e5}.cls-5{fill:#ff9f4c}.cls-9{fill:#ffd072}.cls-11{font-weight:400}
        </style>
    </defs>
    <g id="dscrpImage_1" transform="translate(9 6)">
        <g filter="url(#패스_54429)" transform="translate(-9 -6)">
            <path id="패스_54429-2" d="M0 0h292v122H0z" class="cls-1" transform="translate(9 6)"/>
        </g>
        <g filter="url(#사각형_1640)" transform="translate(-9 -6)">
            <rect id="사각형_1640-2" width="43" height="103" class="cls-1" rx="4" transform="translate(249 34)"/>
        </g>
        <g id="그룹_3343" transform="translate(21 15)">
            <g id="그룹_268" transform="translate(3 53)">
                <text id="금" class="cls-2" transform="translate(0 14)">
                    <tspan x="0" y="0">금</tspan>
                </text>
                <text id="토" class="cls-2" transform="translate(38 14)">
                    <tspan x="0" y="0">토</tspan>
                </text>
                <text id="일" class="cls-2" transform="translate(76 14)">
                    <tspan x="0" y="0">일</tspan>
                </text>
                <text id="월" class="cls-2" transform="translate(114 14)">
                    <tspan x="0" y="0">월</tspan>
                </text>
                <text id="화" class="cls-2" transform="translate(152 14)">
                    <tspan x="0" y="0">화</tspan>
                </text>
                <text id="수" class="cls-2" transform="translate(190 14)">
                    <tspan x="0" y="0">수</tspan>
                </text>
            </g>
            <g id="그룹_273" transform="translate(2 30)">
                <text id="_15" class="cls-3" transform="translate(0 14)">
                    <tspan x="0" y="0">15</tspan>
                </text>
                <text id="_16" class="cls-3" transform="translate(38 14)">
                    <tspan x="0" y="0">16</tspan>
                </text>
                <text id="_17" class="cls-3" transform="translate(76 14)">
                    <tspan x="0" y="0">17</tspan>
                </text>
                <text id="_18" class="cls-3" transform="translate(114 14)">
                    <tspan x="0" y="0">18</tspan>
                </text>
                <text id="_19" class="cls-3" transform="translate(152 14)">
                    <tspan x="0" y="0">19</tspan>
                </text>
                <text id="_20" class="cls-3" transform="translate(190 14)">
                    <tspan x="0" y="0">20</tspan>
                </text>
            </g>
            <g id="그룹_274" transform="translate(3 78)">
                <path id="empty_line" d="M0 0H47V1H0z" class="cls-4" transform="translate(145 6)"/>
                <path id="empty_line-2" d="M0 0H25V1H0z" class="cls-4" transform="translate(191 6)"/>
                <path id="empty_line-3" d="M0 0H48V1H0z" class="cls-4" transform="translate(97 6)"/>
                <path id="color_line" d="M0 0h48.4v.834H0z" class="cls-4" transform="translate(1.172 6.28)"/>
                <path id="color_line-2" d="M0 0H48V1H0z" class="cls-4" transform="translate(49 6)"/>
                <circle id="color_circle" cx="6" cy="6" r="6" class="cls-5"/>
                <circle id="color_circle-2" cx="5.5" cy="5.5" r="5.5" fill="#c41521" transform="translate(40)"/>
                <circle id="color_circle-3" cx="6" cy="6" r="6" fill="#ff5d43" transform="translate(77)"/>
                <circle id="color_circle-4" cx="6" cy="6" r="6" fill="#d2d5dc" transform="translate(115)"/>
                <circle id="color_circle-5" cx="6" cy="6" r="6" class="cls-9" transform="translate(154)"/>
                <circle id="color_circle-6" cx="6" cy="6" r="6" class="cls-9" transform="translate(191)"/>
            </g>
            <text id="_2020년_7월" fill="#3a4b5f" font-family="Roboto-Medium, Roboto" font-size="14px" font-weight="500" letter-spacing="-0.056em" transform="translate(0 15)">
                <tspan x="0" y="0">2021</tspan><tspan y="0" class="cls-11">년</tspan><tspan y="0"> 01</tspan><tspan y="0" class="cls-11">월</tspan>
            </text>
        </g>
        <g id="그룹_3348" transform="translate(250 42)">
            <text id="목" fill="#28a1ae" font-family="MalgunGothicBold, Malgun Gothic" font-size="16px" letter-spacing="-0.03em" transform="translate(3 40)">
                <tspan x="0" y="0">목</tspan>
            </text>
            <text id="_21" fill="#28a1ae" font-family="Roboto-Black, Roboto" font-size="16px" font-weight="800" letter-spacing="-0.03em" transform="translate(2.5 13)">
                <tspan x="0" y="0">21</tspan>
            </text>
            <g id="그룹_3347" transform="translate(0 53)">
                <circle id="icon" cx="11.5" cy="11.5" r="11.5" class="cls-4"/>
                <circle id="color_circle-7" cx="7.5" cy="7.5" r="7.5" class="cls-5" transform="translate(4 4)"/>
            </g>
        </g>
        <text id="오늘" fill="#7e8da0" font-family="MalgunGothic, Malgun Gothic" font-size="15px" letter-spacing="-0.03em" transform="translate(247 158)">
            <tspan x="0" y="0">오늘</tspan>
        </text>
    </g>
</svg>
