<svg xmlns="http://www.w3.org/2000/svg" width="17.632" height="20.702" viewBox="0 0 17.632 20.702">
    <defs>
        <style>
            .cls-1{fill:#fff;fill-rule:evenodd}
        </style>
    </defs>
    <g id="apple" transform="translate(-87 -655)">
        <path id="패스_1023" d="M139.062 231.187c-1.11-1.055-2.077-2.076-4.119-2.181-1.648-.071-2.4.914-3.94.949-1.433.035-1.325-1.091-4.3-.774-2.579.282-4.836 2.815-4.656 6.37.179 3.835 2.9 9.148 5.444 9.148 1.786-.035 2.221-.877 3.689-.877 1.827 0 2.257 1.055 3.689.844 2.472-.352 4.8-4.191 4.8-5.419a4.888 4.888 0 0 1-2.9-3.906 4.712 4.712 0 0 1 2.293-4.154z" class="cls-1" transform="translate(-35.039 431.003)"/>
        <path id="패스_1024" d="M207.168 186.682a5.047 5.047 0 0 1 4.44-5.312c.416 2.542-1.671 5.464-4.44 5.312z" class="cls-1" transform="translate(-111.863 473.63)"/>
    </g>
</svg>
