<svg xmlns="http://www.w3.org/2000/svg" width="19" height="19" viewBox="0 0 19 19">
    <defs>
        <clipPath id="clip-path">
            <path id="Mask" fill="#fff" d="M10.817 1.046L4.094 7.815a.588.588 0 0 1-.856 0L.183 4.738a.6.6 0 0 1 0-.862.588.588 0 0 1 .856 0l2.628 2.647L9.961.185a.588.588 0 0 1 .856 0 .6.6 0 0 1 0 .861z"/>
        </clipPath>
        <style>
        </style>
    </defs>
    <g id="checkbox_n" transform="translate(.5 .5)">
        <path id="Rectangle" fill="#fff" stroke="#d2d5dc" d="M2 0h14a2 2 0 0 1 2 2v14a2 2 0 0 1-2 2H2a2 2 0 0 1-2-2V2a2 2 0 0 1 2-2z"/>
    </g>
</svg>
