<svg xmlns="http://www.w3.org/2000/svg" id="check_oval" width="20" height="20" viewBox="0 0 20 20">
    <defs>
        <clipPath id="clip-path">
            <path id="Mask" d="M10.817 1.046L4.094 7.815a.588.588 0 0 1-.856 0L.183 4.738a.6.6 0 0 1 0-.862.588.588 0 0 1 .856 0l2.628 2.647L9.961.185a.588.588 0 0 1 .856 0 .6.6 0 0 1 0 .861z" class="cls-1"/>
        </clipPath>
        <style>
            .cls-1{fill:#fff;stroke:#fff}
        </style>
    </defs>
    <circle id="Oval" cx="10" cy="10" r="10" fill="#44bbc8"/>
    <g transform="translate(5 6)">
        <path id="Mask-2" d="M10.817 1.046L4.094 7.815a.588.588 0 0 1-.856 0L.183 4.738a.6.6 0 0 1 0-.862.588.588 0 0 1 .856 0l2.628 2.647L9.961.185a.588.588 0 0 1 .856 0 .6.6 0 0 1 0 .861z" class="cls-1"/>
    </g>
</svg>
