<svg xmlns="http://www.w3.org/2000/svg" width="24" height="24" viewBox="0 0 24 24">
    <g opacity="0.3">
        <path fill="#8f9197" d="M24-39a11.869 11.869 0 0 0-11 8 11.869 11.869 0 0 0 11 8 11.869 11.869 0 0 0 11-8 11.869 11.869 0 0 0-11-8zm0 13.333A5.177 5.177 0 0 1 19-31a5.177 5.177 0 0 1 5-5.333A5.177 5.177 0 0 1 29-31a5.177 5.177 0 0 1-5 5.333zm0-8.533a3.1 3.1 0 0 0-3 3.2 3.1 3.1 0 0 0 3 3.2 3.1 3.1 0 0 0 3-3.2 3.1 3.1 0 0 0-3-3.2z" transform="translate(-12 44)"/>
        <path fill="none" d="M0 0H24V24H0z"/>
    </g>
</svg>
