<svg xmlns="http://www.w3.org/2000/svg" width="17.632" height="16.157" viewBox="0 0 17.632 16.157">
    <g>
        <g>
            <path fill="#fff" d="M827.54 1188.348c.036 5.353.053 10.709.079 16.066 2 0 4.014-.011 6.019-.028.017-2.656-.062-5.311 0-7.967.662.915 1.269 1.872 1.943 2.779 1.131 1.738 2.409 3.38 3.5 5.145 2.018.045 4.04-.02 6.058 0 .02-.253.042-.5.039-.755-.053-5.112-.025-10.221-.1-15.333-2-.005-3.995.023-5.991.02 0 2.67.042 5.342.02 8.009-1.867-2.63-3.635-5.339-5.544-7.939-2.006-.079-4.019-.006-6.023.003z" transform="translate(-827.54 -1188.257) translate(827.54 1188.257) translate(-827.54 -1188.257)"/>
        </g>
    </g>
</svg>
