<svg xmlns="http://www.w3.org/2000/svg" width="19.25" height="22" viewBox="0 0 19.25 22">
    <path fill="#7e8da0" d="M0 19.938A2.063 2.063 0 0 0 2.063 22h15.125a2.063 2.063 0 0 0 2.063-2.062V8.25H0zm13.75-8.422a.517.517 0 0 1 .516-.516h1.719a.517.517 0 0 1 .516.516v1.719a.517.517 0 0 1-.516.516h-1.719a.517.517 0 0 1-.516-.516zm0 5.5a.517.517 0 0 1 .516-.516h1.719a.517.517 0 0 1 .516.516v1.719a.517.517 0 0 1-.516.516h-1.719a.517.517 0 0 1-.516-.516zm-5.5-5.5A.517.517 0 0 1 8.766 11h1.719a.517.517 0 0 1 .516.516v1.719a.517.517 0 0 1-.516.516H8.766a.517.517 0 0 1-.516-.516zm0 5.5a.517.517 0 0 1 .516-.516h1.719a.517.517 0 0 1 .516.516v1.719a.517.517 0 0 1-.516.516H8.766a.517.517 0 0 1-.516-.516zm-5.5-5.5A.517.517 0 0 1 3.266 11h1.718a.517.517 0 0 1 .516.516v1.719a.517.517 0 0 1-.516.516H3.266a.517.517 0 0 1-.516-.516zm0 5.5a.517.517 0 0 1 .516-.516h1.718a.517.517 0 0 1 .516.516v1.719a.517.517 0 0 1-.516.516H3.266a.517.517 0 0 1-.516-.516zM17.188 2.75h-2.063V.688A.69.69 0 0 0 14.438 0h-1.375a.69.69 0 0 0-.687.688V2.75h-5.5V.688A.69.69 0 0 0 6.188 0H4.813a.69.69 0 0 0-.687.688V2.75H2.063A2.063 2.063 0 0 0 0 4.813v2.062h19.25V4.813a2.063 2.063 0 0 0-2.062-2.063z"/>
</svg>
