<svg xmlns="http://www.w3.org/2000/svg" width="22.375" height="19.961" viewBox="0 0 22.375 19.961">
    <defs>
        <style>
            .cls-1{fill:#7e8da0}
        </style>
    </defs>
    <g id="Icon_chart" transform="translate(-304 -719.185)">
        <path id="Icon_metro-chart-dots" d="M8.68 19.282a1.984 1.984 0 0 1 0-3.969c.058 0 .116 0 .173.008l2.133-3.555a1.984 1.984 0 1 1 3.325 0l2.133 3.555q.086-.008.173-.008h.131l3.522-6.157a1.984 1.984 0 1 1 1.639.866h-.131l-3.521 6.162a1.984 1.984 0 1 1-3.3.035l-2.135-3.559c-.057 0-.115.008-.173.008s-.116 0-.173-.008l-2.133 3.555a1.984 1.984 0 0 1-1.663 3.067z" class="cls-1" transform="translate(302.362 714.132)"/>
        <path id="사각형_1769" d="M1.4 0a1.4 1.4 0 0 1 1.4 1.4v15.917H0V1.4A1.4 1.4 0 0 1 1.4 0z" class="cls-1" transform="translate(304 719.185)"/>
        <path id="사각형_1770" d="M1.4 0a1.4 1.4 0 0 1 1.4 1.4v19.575a1.4 1.4 0 0 1-1.4 1.4H0V1.4A1.4 1.4 0 0 1 1.4 0z" class="cls-1" transform="rotate(90 -204.986 531.36)"/>
    </g>
</svg>
